<svg viewBox="0 0 88 30" xmlns="http://www.w3.org/2000/svg" xmlns:xlink="http://www.w3.org/1999/xlink" width="88.000000" height="30.000000" fill="none" customFrame="#000000">
	<g id="text">
		<path id="GrowBe" d="M18.048 12.528L18.048 13.824C18.048 16.224 17.28 18.168 15.744 19.656C14.208 21.144 12.224 21.888 9.792 21.888C7.2 21.888 5.048 21.048 3.336 19.368C1.64 17.672 0.792 15.608 0.792 13.176C0.792 10.728 1.632 8.656 3.312 6.96C5.008 5.264 7.104 4.416 9.6 4.416C11.168 4.416 12.6 4.776 13.896 5.496C15.192 6.2 16.2 7.144 16.92 8.328L14.088 9.96C13.688 9.272 13.08 8.712 12.264 8.28C11.464 7.848 10.568 7.632 9.576 7.632C7.976 7.632 6.656 8.16 5.616 9.216C4.592 10.256 4.08 11.576 4.08 13.176C4.08 14.76 4.6 16.072 5.64 17.112C6.696 18.136 8.088 18.648 9.816 18.648C11.096 18.648 12.152 18.368 12.984 17.808C13.832 17.232 14.408 16.448 14.712 15.456L9.624 15.456L9.624 12.528L18.048 12.528ZM23.3558 11.616C23.6437 10.848 24.1157 10.272 24.7718 9.888C25.4438 9.504 26.1877 9.312 27.0037 9.312L27.0037 12.768C26.0597 12.656 25.2118 12.848 24.4598 13.344C23.7238 13.84 23.3558 14.664 23.3558 15.816L23.3558 21.552L20.2598 21.552L20.2598 9.552L23.3558 9.552L23.3558 11.616ZM38.5931 20.064C37.3611 21.28 35.8571 21.888 34.0811 21.888C32.3051 21.888 30.8011 21.28 29.5691 20.064C28.3531 18.832 27.7451 17.328 27.7451 15.552C27.7451 13.776 28.3531 12.28 29.5691 11.064C30.8011 9.832 32.3051 9.216 34.0811 9.216C35.8571 9.216 37.3611 9.832 38.5931 11.064C39.8251 12.28 40.4411 13.776 40.4411 15.552C40.4411 17.328 39.8251 18.832 38.5931 20.064ZM31.7531 17.928C32.3771 18.552 33.1531 18.864 34.0811 18.864C35.0091 18.864 35.7851 18.552 36.4091 17.928C37.0331 17.304 37.3451 16.512 37.3451 15.552C37.3451 14.592 37.0331 13.8 36.4091 13.176C35.7851 12.552 35.0091 12.24 34.0811 12.24C33.1531 12.24 32.3771 12.552 31.7531 13.176C31.1451 13.8 30.8411 14.592 30.8411 15.552C30.8411 16.512 31.1451 17.304 31.7531 17.928ZM55.6624 9.552L58.9504 9.552L55.1344 21.552L52.1824 21.552L49.9744 14.28L47.7664 21.552L44.8144 21.552L40.9984 9.552L44.2864 9.552L46.3264 16.92L48.5104 9.552L51.4384 9.552L53.6224 16.944L55.6624 9.552ZM70.9151 12.84C72.3871 13.688 73.1231 14.968 73.1231 16.68C73.1231 18.104 72.6191 19.272 71.6111 20.184C70.6031 21.096 69.3631 21.552 67.8911 21.552L60.7631 21.552L60.7631 4.752L67.3871 4.752C68.8271 4.752 70.0351 5.2 71.0111 6.096C72.0031 6.976 72.4991 8.104 72.4991 9.48C72.4991 10.872 71.9711 11.992 70.9151 12.84ZM67.3871 7.848L64.0751 7.848L64.0751 11.544L67.3871 11.544C67.8991 11.544 68.3231 11.368 68.6591 11.016C69.0111 10.664 69.1871 10.224 69.1871 9.696C69.1871 9.168 69.0191 8.728 68.6831 8.376C68.3471 8.024 67.9151 7.848 67.3871 7.848ZM67.8911 18.456C68.4511 18.456 68.9151 18.272 69.2831 17.904C69.6511 17.52 69.8351 17.04 69.8351 16.464C69.8351 15.904 69.6511 15.44 69.2831 15.072C68.9151 14.688 68.4511 14.496 67.8911 14.496L64.0751 14.496L64.0751 18.456L67.8911 18.456ZM77.9539 16.824C78.3699 18.328 79.4979 19.08 81.3379 19.08C82.5219 19.08 83.4179 18.68 84.0259 17.88L86.5219 19.32C85.3379 21.032 83.5939 21.888 81.2899 21.888C79.3059 21.888 77.7139 21.288 76.5139 20.088C75.3139 18.888 74.7139 17.376 74.7139 15.552C74.7139 13.744 75.3059 12.24 76.4899 11.04C77.6739 9.824 79.1939 9.216 81.0499 9.216C82.8099 9.216 84.2579 9.824 85.3939 11.04C86.5459 12.256 87.1219 13.76 87.1219 15.552C87.1219 15.952 87.0819 16.376 87.0019 16.824L77.9539 16.824ZM77.9059 14.424L84.0259 14.424C83.8499 13.608 83.4819 13 82.9219 12.6C82.3779 12.2 81.7539 12 81.0499 12C80.2179 12 79.5299 12.216 78.9859 12.648C78.4419 13.064 78.0819 13.656 77.9059 14.424Z" fill="rgb(0,0,0)" fill-rule="nonzero" />
	</g>
</svg>
