<svg viewBox="0 0 206.905 59" xmlns="http://www.w3.org/2000/svg" xmlns:xlink="http://www.w3.org/1999/xlink" width="206.904678" height="59.000000" fill="none" customFrame="#000000">
	<g id="Group 402">
		<path id="Vector" d="M29.5 0C25.6261 0 21.7899 0.763123 18.2108 2.24554C14.6317 3.72813 11.3797 5.90101 8.6403 8.6403C5.90101 11.3797 3.72813 14.6317 2.24554 18.2108C0.763123 21.7899 0 25.6261 0 29.5C0 33.3739 0.763123 37.2101 2.24554 40.7892C3.72813 44.3683 5.90101 47.6203 8.6403 50.3597C11.3797 53.099 14.6317 55.2719 18.2108 56.7545C21.7899 58.2369 25.6261 59 29.5 59L29.5 44.25C27.5629 44.25 25.6449 43.8685 23.8554 43.1271C22.0658 42.3859 20.4398 41.2995 19.0702 39.9299C17.7005 38.5602 16.6141 36.9342 15.8729 35.1446C15.1315 33.3551 14.75 31.4371 14.75 29.5C14.75 27.5629 15.1315 25.6449 15.8729 23.8554C16.6141 22.0658 17.7005 20.4398 19.0702 19.0702C20.4398 17.7005 22.0658 16.6141 23.8554 15.8729C25.6449 15.1315 27.5629 14.75 29.5 14.75L29.5 0Z" fill="rgb(15,82,255)" fill-rule="nonzero" />
		<path id="Vector" d="M29.5003 39.3334C34.9311 39.3334 39.3336 34.9309 39.3336 29.5001C39.3336 24.0693 34.9311 19.6667 29.5003 19.6667C24.0695 19.6667 19.667 24.0693 19.667 29.5001C19.667 34.9309 24.0695 39.3334 29.5003 39.3334Z" fill="rgb(15,82,255)" fill-rule="evenodd" />
		<path id="Vector" d="M0 29.5C0 33.3739 0.763123 37.2101 2.24554 40.7892C3.72813 44.3683 5.90101 47.6203 8.6403 50.3597C11.3797 53.099 14.6317 55.2719 18.2108 56.7545C21.7899 58.2369 25.6261 59 29.5 59C33.3739 59 37.2101 58.2369 40.7892 56.7545C44.3683 55.2719 47.6203 53.099 50.3597 50.3597C53.099 47.6203 55.2719 44.3683 56.7545 40.7892C58.2369 37.2101 59 33.3739 59 29.5L44.25 29.5C44.25 31.4371 43.8685 33.3551 43.1271 35.1446C42.3859 36.9342 41.2995 38.5602 39.9299 39.9298C38.5602 41.2995 36.9342 42.3859 35.1446 43.1271C33.3551 43.8685 31.4371 44.25 29.5 44.25C27.5629 44.25 25.6449 43.8685 23.8554 43.1271C22.0658 42.3859 20.4398 41.2995 19.0702 39.9298C17.7005 38.5602 16.6141 36.9342 15.8729 35.1446C15.1315 33.3551 14.75 31.4371 14.75 29.5L0 29.5Z" fill="rgb(91,208,244)" fill-rule="nonzero" />
		<path id="Vector" d="M39.3337 29.5002C39.3337 26.8922 38.2977 24.3911 36.4537 22.547C34.6095 20.7028 32.1084 19.6667 29.5004 19.6667C26.8925 19.6667 24.3914 20.7028 22.5472 22.547C20.703 24.3911 19.667 26.8922 19.667 29.5002L29.5004 29.5002L39.3337 29.5002Z" fill="rgb(91,208,244)" fill-rule="nonzero" />
		<path id="Vector" d="M74.407 18.4164L70.7431 18.4164L70.7431 38.7714L74.407 38.7714L74.407 18.4164Z" fill="rgb(15,82,255)" fill-rule="nonzero" />
		<path id="Vector" d="M76.7988 31.5605C76.7988 36.2712 80.0556 39.1791 84.3592 39.1791C88.6628 39.1791 91.9196 36.2712 91.9196 31.5605C91.9196 26.8498 88.6628 23.9419 84.3592 23.9419C80.0556 23.9419 76.7988 26.8498 76.7988 31.5605ZM80.4627 31.5605C80.4627 28.7689 82.0911 27.1405 84.3592 27.1405C86.6273 27.1405 88.2557 28.7689 88.2557 31.5605C88.2557 34.352 86.6273 35.9804 84.3592 35.9804C82.0911 35.9804 80.4627 34.352 80.4627 31.5605Z" fill="rgb(15,82,255)" fill-rule="nonzero" />
		<path id="Vector" d="M105.013 24.349L105.013 26.2972L104.722 26.2972C103.85 25.0469 102.454 23.9419 99.953 23.9419C96.5217 23.9419 93.4394 26.8498 93.4394 31.3279C93.4394 35.806 96.5217 38.7138 99.953 38.7138C102.454 38.7138 103.85 37.5797 104.664 36.4457L104.955 36.4457L104.955 37.8415C104.955 40.633 103.326 41.9125 100.942 41.9125C98.5572 41.9125 97.3359 40.633 96.8415 38.9754L93.5557 40.4004C94.3118 42.5812 96.5217 44.9948 101 44.9948C105.594 44.9948 108.618 42.5812 108.618 37.9286L108.618 24.349L105.013 24.349ZM101.058 35.5733C98.7898 35.5733 97.1033 33.9449 97.1033 31.3279C97.1033 28.7108 98.7898 27.0824 101.058 27.0824C103.326 27.0824 105.013 28.7108 105.013 31.3279C105.013 33.9449 103.326 35.5733 101.058 35.5733Z" fill="rgb(15,82,255)" fill-rule="nonzero" />
		<path id="Vector" d="M110.989 31.5605C110.989 36.2712 114.246 39.1791 118.55 39.1791C122.853 39.1791 126.11 36.2712 126.11 31.5605C126.11 26.8498 122.853 23.9419 118.55 23.9419C114.246 23.9419 110.989 26.8498 110.989 31.5605ZM114.653 31.5605C114.653 28.7689 116.281 27.1405 118.55 27.1405C120.818 27.1405 122.446 28.7689 122.446 31.5605C122.446 34.352 120.818 35.9804 118.55 35.9804C116.281 35.9804 114.653 34.352 114.653 31.5605Z" fill="rgb(15,82,255)" fill-rule="nonzero" />
		<path id="Vector" d="M128.986 20.161C128.986 21.6441 130.121 22.6618 131.576 22.6618C133.029 22.6618 134.163 21.6441 134.163 20.161C134.163 18.6781 133.029 17.6603 131.576 17.6603C130.121 17.6603 128.986 18.6781 128.986 20.161ZM133.406 24.3483L129.743 24.3483L129.743 38.7713L133.406 38.7713L133.406 24.3483Z" fill="rgb(91,208,244)" fill-rule="nonzero" />
		<path id="Vector" d="M136.671 44.5877L140.336 44.5877L140.336 36.9109L140.626 36.9109C141.44 38.0741 142.836 39.1791 145.337 39.1791C148.768 39.1791 151.851 36.2712 151.851 31.5605C151.851 26.8498 148.768 23.9419 145.337 23.9419C142.836 23.9419 141.44 25.0469 140.568 26.2973L140.277 26.2973L140.277 24.349L136.671 24.349L136.671 44.5877ZM144.231 36.0386C141.964 36.0386 140.277 34.4102 140.277 31.5605C140.277 28.7108 141.964 27.0824 144.231 27.0824C146.5 27.0824 148.186 28.7108 148.186 31.5605C148.186 34.4102 146.5 36.0386 144.231 36.0386Z" fill="rgb(91,208,244)" fill-rule="nonzero" />
		<path id="Vector" d="M153.988 28.391C153.988 31.2407 156.372 32.2875 159.396 32.8691L160.153 33.0144C161.955 33.3633 162.769 33.7996 162.769 34.7301C162.769 35.6606 161.955 36.3875 160.269 36.3875C158.582 36.3875 157.216 35.6896 156.837 33.596L153.464 34.4683C153.959 37.4925 156.488 39.1791 160.269 39.1791C163.932 39.1791 166.317 37.4635 166.317 34.4393C166.317 31.415 163.875 30.601 160.618 29.9612L159.861 29.8158C158.349 29.525 157.535 29.1179 157.535 28.1584C157.535 27.286 158.292 26.7334 159.687 26.7334C161.083 26.7334 162.071 27.315 162.42 28.8853L165.736 27.8676C165.038 25.5413 162.916 23.9419 159.687 23.9419C156.255 23.9419 153.988 25.5413 153.988 28.391Z" fill="rgb(91,208,244)" fill-rule="nonzero" />
		<path id="Vector" d="M182.775 38.7714L182.775 24.3484L179.112 24.3484L179.112 31.7925C179.112 34.4677 177.804 36.038 175.564 36.038C173.586 36.038 172.482 34.9622 172.482 32.7812L172.482 24.3484L168.817 24.3484L168.817 32.9556C168.817 36.5324 171.058 39.004 174.431 39.004C177.076 39.004 178.298 37.8408 178.879 36.6195L179.169 36.6195L179.169 38.7714L182.775 38.7714Z" fill="rgb(91,208,244)" fill-rule="nonzero" />
		<path id="Vector" d="M186.025 24.3486L186.025 38.7716L189.69 38.7716L189.69 30.1643C189.69 28.187 190.621 27.082 192.306 27.082C193.761 27.082 194.633 27.8962 194.633 29.4664L194.633 38.7716L198.297 38.7716L198.297 30.1643C198.297 28.187 199.228 27.082 200.914 27.082C202.368 27.082 203.24 27.8962 203.24 29.4664L203.24 38.7716L206.905 38.7716L206.905 29.292C206.905 25.8025 204.752 24.116 202.077 24.116C199.722 24.116 198.646 25.1628 197.949 26.3841L197.657 26.3841C196.988 25.0175 195.796 24.116 193.702 24.116C191.609 24.116 190.474 25.0465 189.923 26.1515L189.631 26.1515L189.631 24.3486L186.025 24.3486Z" fill="rgb(91,208,244)" fill-rule="nonzero" />
	</g>
</svg>
