<svg viewBox="0 0 212.299 59" xmlns="http://www.w3.org/2000/svg" xmlns:xlink="http://www.w3.org/1999/xlink" width="212.298691" height="59.000000" fill="none" customFrame="#000000">
	<g id="Group 401">
		<path id="Vector" d="M105.236 6.43504C107.289 4.38233 110.617 4.38233 112.67 6.43504C114.723 8.48789 114.723 11.8161 112.67 13.869L100.155 26.3845C96.5612 21.5687 96.9516 14.7197 101.326 10.3456L105.236 6.43504Z" fill="rgb(79,158,145)" fill-rule="evenodd" />
		<path id="Vector" d="M123.128 34.6719C125.181 36.7246 125.181 40.053 123.128 42.1057C121.076 44.1586 117.747 44.1586 115.694 42.1057L103.179 29.5904C107.994 25.9971 114.843 26.3873 119.217 30.7613L123.128 34.6719Z" fill="rgb(235,225,197)" fill-rule="evenodd" />
		<path id="Vector" d="M94.8904 52.5645C92.8377 54.6174 89.5093 54.6174 87.4566 52.5645C85.4038 50.5117 85.4038 47.1834 87.4566 45.1306L99.972 32.6152C103.565 37.431 103.175 44.28 98.801 48.6539L94.8904 52.5645Z" fill="rgb(235,204,110)" fill-rule="evenodd" />
		<path id="Vector" d="M76.9986 24.3266C74.9458 22.2738 74.9458 18.9455 76.9986 16.8927C79.0515 14.8398 82.3797 14.8398 84.4326 16.8927L96.9481 29.4082C92.1323 33.0015 85.2831 32.6111 80.9092 28.2372L76.9986 24.3266Z" fill="rgb(237,131,78)" fill-rule="evenodd" />
		<path id="Vector" d="M102.438 51.0315C105.465 47.666 106.872 43.3595 106.659 39.1195L112.669 45.1302C112.684 45.1451 112.699 45.16 112.715 45.175L112.715 49.4662C112.715 52.3693 110.361 54.7227 107.458 54.7227C105.1 54.7227 103.105 53.1701 102.438 51.0315Z" fill="rgb(237,131,78)" fill-rule="evenodd" />
		<path id="Vector" d="M78.5311 31.8751C81.8965 34.9022 86.2029 36.3091 90.4429 36.0956L84.4324 42.1063C84.4173 42.1212 84.4024 42.1363 84.3876 42.1512L80.0964 42.1512C77.1933 42.1514 74.8398 39.7978 74.8398 36.8947C74.8398 34.5368 76.3924 32.5414 78.5311 31.8751Z" fill="rgb(79,158,145)" fill-rule="evenodd" />
		<path id="Vector" d="M121.595 27.1249C118.23 24.0978 113.924 22.6909 109.684 22.9042L115.694 16.8937C115.709 16.8788 115.724 16.8637 115.739 16.8486L120.03 16.8486C122.934 16.8486 125.287 19.2022 125.287 22.1053C125.287 24.4633 123.734 26.4586 121.595 27.1249Z" fill="rgb(235,204,110)" fill-rule="evenodd" />
		<path id="Vector" d="M97.6882 7.96787C94.6611 11.3332 93.2544 15.6397 93.4677 19.8799L87.4572 13.8692C87.4421 13.8543 87.4272 13.8393 87.4121 13.8244L87.4121 9.53318C87.4121 6.63007 89.7655 4.27649 92.6687 4.27649C95.0267 4.27649 97.022 5.82922 97.6882 7.96787Z" fill="rgb(235,225,197)" fill-rule="evenodd" />
		<path id="Vector" d="M92.6684 0C87.4033 0 83.135 4.26828 83.135 9.5334L83.135 11.3876C79.9674 10.56 76.4569 11.3872 73.9746 13.8694C70.2516 17.5925 70.2516 23.6287 73.9746 27.3517L75.2857 28.6628C72.4607 30.3174 70.5634 33.3846 70.5634 36.8949C70.5634 42.16 74.8317 46.4283 80.0968 46.4283L81.9509 46.4283C81.1232 49.5959 81.9504 53.1064 84.4327 55.5885C88.1557 59.3115 94.192 59.3115 97.915 55.5885L101.825 51.678C105.275 48.2284 106.886 43.6363 106.659 39.1196L112.67 45.1303C116.393 48.8533 122.429 48.8533 126.152 45.1303C129.876 41.4072 129.876 35.371 126.152 31.6481L124.842 30.3372C127.666 28.6826 129.563 25.6154 129.563 22.1051C129.563 16.84 125.294 12.5717 120.03 12.5717L118.176 12.5717C119.003 9.40397 118.176 5.89349 115.694 3.41122C111.971 -0.31182 105.935 -0.31182 102.212 3.41122L98.3011 7.32183C94.8514 10.7715 93.2402 15.3634 93.4676 19.8801L87.4569 13.8694C87.4419 13.8545 87.4269 13.8395 87.4118 13.8246L87.4118 9.5334C87.4118 6.63029 89.7653 4.27686 92.6684 4.27686C95.0264 4.27686 97.0217 5.82944 97.6879 7.96809C97.8854 7.74858 98.0897 7.53306 98.3009 7.32183L100.901 4.72225C99.2459 1.89724 96.1787 0 92.6684 0ZM115.739 16.8486C115.724 16.8635 115.709 16.8786 115.694 16.8935L109.683 22.904C113.924 22.6907 118.23 24.0975 121.595 27.1247C123.734 26.4584 125.287 24.463 125.287 22.1051C125.287 19.202 122.934 16.8486 120.03 16.8486L115.739 16.8486ZM84.3877 42.1514C84.4027 42.1363 84.4176 42.1213 84.4327 42.1063L90.4432 36.0957C86.2032 36.3091 81.8969 34.9022 78.5315 31.8753C76.3929 32.5416 74.8401 34.5369 74.8401 36.8949C74.8401 39.798 77.1937 42.1514 80.0968 42.1514L84.3877 42.1514ZM78.3676 31.7259C78.2045 31.5752 78.0437 31.4206 77.8852 31.2622L77.8852 31.2623C78.0437 31.4208 78.2045 31.5752 78.3676 31.7259ZM107.458 59C103.948 59 100.881 57.1026 99.226 54.2776L101.825 51.678C102.037 51.4668 102.241 51.2513 102.439 51.0318C103.105 53.1704 105.1 54.7231 107.458 54.7231C110.361 54.7231 112.715 52.3697 112.715 49.4666L112.715 45.1754C113.947 46.3912 115.427 47.2035 116.992 47.6123L116.992 49.4666C116.992 54.7317 112.723 59 107.458 59ZM112.67 6.43533C110.617 4.38262 107.289 4.38262 105.236 6.43533L101.325 10.3459C96.9513 14.72 96.5609 21.569 100.154 26.3848L112.67 13.8693C114.723 11.8164 114.723 8.48819 112.67 6.43533ZM123.127 42.1062C125.181 40.0533 125.181 36.7251 123.127 34.6722L119.217 30.7616C114.843 26.3877 107.994 25.9974 103.178 29.5907L115.694 42.1062C117.747 44.159 121.076 44.159 123.127 42.1062ZM94.8907 52.5644C92.8379 54.6172 89.5097 54.6172 87.4568 52.5644C85.4041 50.5115 85.4041 47.1833 87.4568 45.1304L99.9723 32.6149C103.566 37.4307 103.175 44.2799 98.8013 48.6538L94.8907 52.5644ZM76.9987 16.8935C74.946 18.9464 74.946 22.2746 76.9987 24.3275L80.9093 28.2381C85.2834 32.612 92.1324 33.0023 96.9482 29.409L84.4327 16.8935C82.3798 14.8408 79.0516 14.8408 76.9987 16.8935Z" fill="rgb(61,58,44)" fill-rule="evenodd" />
		<path id="Vector" d="M0 19.2781L4.67521 19.2781L4.67521 33.8057L12.705 33.8057L12.705 37.7414L0 37.7414L0 19.2781Z" fill="rgb(255,255,255)" fill-rule="nonzero" />
		<path id="Vector" d="M21.1935 38.1376C19.6263 38.1376 18.2527 37.8558 17.0729 37.2924C15.8931 36.7112 14.9774 35.9187 14.3258 34.9151C13.692 33.8937 13.375 32.7228 13.375 31.402C13.375 30.0813 13.692 28.9191 14.3258 27.9155C14.9774 26.8941 15.8931 26.1016 17.0729 25.5382C18.2527 24.957 19.6263 24.6665 21.1935 24.6665C22.7608 24.6665 24.1342 24.957 25.314 25.5382C26.4939 26.1016 27.4008 26.8941 28.0346 27.9155C28.6862 28.9191 29.0119 30.0813 29.0119 31.402C29.0119 32.7228 28.6862 33.8937 28.0346 34.9151C27.4008 35.9187 26.4939 36.7112 25.314 37.2924C24.1342 37.8558 22.7608 38.1376 21.1935 38.1376ZM21.1935 34.5188C22.1268 34.5188 22.8664 34.2459 23.4122 33.7001C23.9758 33.1365 24.2574 32.3706 24.2574 31.402C24.2574 30.4335 23.9758 29.6763 23.4122 29.1305C22.8664 28.5669 22.1268 28.2853 21.1935 28.2853C20.2602 28.2853 19.5118 28.5669 18.9484 29.1305C18.4024 29.6763 18.1295 30.4335 18.1295 31.402C18.1295 32.3706 18.4024 33.1365 18.9484 33.7001C19.5118 34.2459 20.2602 34.5188 21.1935 34.5188Z" fill="rgb(255,255,255)" fill-rule="nonzero" />
		<path id="Vector" d="M37.7445 43.8166C36.8993 43.8166 36.0452 43.7373 35.1824 43.5789C34.3372 43.4203 33.6063 43.2091 32.99 42.9449L32.99 39.7224C34.3811 40.321 35.9659 40.6204 37.7445 40.6204C39.03 40.6204 39.9545 40.3562 40.5179 39.828C41.0991 39.2998 41.3896 38.525 41.3896 37.5036L41.3896 36.7376C40.879 37.1779 40.245 37.5212 39.4878 37.7678C38.7482 38.0144 37.9558 38.1376 37.1105 38.1376C35.7723 38.1376 34.5925 37.8558 33.5711 37.2924C32.5498 36.7288 31.7485 35.9363 31.1675 34.9151C30.6039 33.8937 30.3223 32.7228 30.3223 31.402C30.3223 30.0637 30.6039 28.8839 31.1675 27.8626C31.7309 26.8412 32.5233 26.0576 33.5447 25.5117C34.566 24.9483 35.7371 24.6665 37.0577 24.6665C38.8715 24.6665 40.3682 25.2212 41.548 26.3306L41.548 25.0626L46.0385 25.0626L46.0385 36.8697C46.0385 39.0708 45.3604 40.779 44.0046 41.994C42.6663 43.2091 40.5796 43.8166 37.7445 43.8166ZM38.2728 34.5453C38.9948 34.5453 39.6375 34.3604 40.2009 33.9906C40.7645 33.6208 41.1606 33.1278 41.3896 32.5114L41.3896 30.2927C41.143 29.6763 40.738 29.192 40.1746 28.8398C39.611 28.4702 38.9772 28.2853 38.2728 28.2853C37.3219 28.2853 36.5558 28.5669 35.9748 29.1305C35.3936 29.6763 35.1031 30.4246 35.1031 31.3756C35.1031 32.3441 35.3936 33.1189 35.9748 33.7001C36.5558 34.2635 37.3219 34.5453 38.2728 34.5453Z" fill="rgb(255,255,255)" fill-rule="nonzero" />
		<path id="Vector" d="M55.0363 38.1376C53.4691 38.1376 52.0956 37.8558 50.9158 37.2924C49.736 36.7112 48.8202 35.9187 48.1688 34.9151C47.5348 33.8937 47.2178 32.7228 47.2178 31.402C47.2178 30.0813 47.5348 28.9191 48.1688 27.9155C48.8202 26.8941 49.736 26.1016 50.9158 25.5382C52.0956 24.957 53.4691 24.6665 55.0363 24.6665C56.6035 24.6665 57.977 24.957 59.1568 25.5382C60.3366 26.1016 61.2435 26.8941 61.8775 27.9155C62.529 28.9191 62.8549 30.0813 62.8549 31.402C62.8549 32.7228 62.529 33.8937 61.8775 34.9151C61.2435 35.9187 60.3366 36.7112 59.1568 37.2924C57.977 37.8558 56.6035 38.1376 55.0363 38.1376ZM55.0363 34.5188C55.9696 34.5188 56.7092 34.2459 57.2551 33.7001C57.8186 33.1365 58.1004 32.3706 58.1004 31.402C58.1004 30.4335 57.8186 29.6763 57.2551 29.1305C56.7092 28.5669 55.9696 28.2853 55.0363 28.2853C54.1031 28.2853 53.3546 28.5669 52.7912 29.1305C52.2452 29.6763 51.9723 30.4335 51.9723 31.402C51.9723 32.3706 52.2452 33.1365 52.7912 33.7001C53.3546 34.2459 54.1031 34.5188 55.0363 34.5188Z" fill="rgb(255,255,255)" fill-rule="nonzero" />
		<path id="Vector" d="M137.418 19.2781L142.094 19.2781L142.094 37.7414L137.418 37.7414L137.418 19.2781Z" fill="rgb(255,255,255)" fill-rule="nonzero" />
		<path id="Vector" d="M144.461 25.0626L148.952 25.0626L148.952 26.3306C150.131 25.2212 151.628 24.6665 153.441 24.6665C154.762 24.6665 155.934 24.9483 156.954 25.5117C157.977 26.0576 158.768 26.8412 159.331 27.8626C159.895 28.8663 160.178 30.0374 160.178 31.3756C160.178 32.6963 159.895 33.8761 159.331 34.9151C158.768 35.9363 157.977 36.7288 156.954 37.2924C155.951 37.8558 154.78 38.1376 153.441 38.1376C152.597 38.1376 151.786 38.0055 151.012 37.7413C150.255 37.4949 149.62 37.1514 149.11 36.7112L149.11 43.5259L144.461 43.5259L144.461 25.0626ZM152.227 34.5188C153.178 34.5188 153.944 34.2372 154.524 33.6736C155.105 33.1102 155.397 32.3441 155.397 31.3756C155.397 30.407 155.105 29.65 154.524 29.104C153.944 28.5406 153.178 28.2588 152.227 28.2588C151.523 28.2588 150.888 28.4437 150.325 28.8135C149.761 29.1657 149.357 29.65 149.11 30.2662L149.11 32.5114C149.357 33.1278 149.761 33.6208 150.325 33.9906C150.888 34.3428 151.523 34.5188 152.227 34.5188Z" fill="rgb(255,255,255)" fill-rule="nonzero" />
		<path id="Vector" d="M167.108 38.1376C166.087 38.1376 165.022 38.032 163.912 37.8206C162.803 37.6269 161.921 37.3452 161.271 36.9753L161.271 33.568C161.992 33.9906 162.855 34.3428 163.859 34.6246C164.88 34.8886 165.813 35.0207 166.659 35.0207C167.275 35.0207 167.724 34.9766 168.005 34.8886C168.288 34.8006 168.428 34.6246 168.428 34.3604C168.428 34.149 168.332 33.9817 168.139 33.8585C167.963 33.7177 167.627 33.5767 167.134 33.4359C166.659 33.2775 166.105 33.1102 165.47 32.934C164.396 32.617 163.552 32.2913 162.935 31.9567C162.318 31.6221 161.861 31.1995 161.561 30.6888C161.262 30.1782 161.112 29.5355 161.112 28.7607C161.112 27.3871 161.649 26.3658 162.723 25.6966C163.815 25.0098 165.303 24.6665 167.187 24.6665C168.103 24.6665 169.063 24.7634 170.066 24.957C171.088 25.1508 171.853 25.4061 172.365 25.7231L172.365 29.0777C171.837 28.7255 171.131 28.4348 170.251 28.206C169.389 27.977 168.578 27.8626 167.821 27.8626C167.223 27.8626 166.756 27.9242 166.421 28.0474C166.087 28.1532 165.92 28.3468 165.92 28.6286C165.92 28.8928 166.087 29.0953 166.421 29.2361C166.756 29.3769 167.355 29.5531 168.217 29.7643C168.781 29.9053 169.019 29.9668 168.93 29.9492C170.057 30.2486 170.928 30.5832 171.545 30.953C172.162 31.3228 172.593 31.763 172.84 32.2737C173.104 32.7667 173.236 33.4007 173.236 34.1755C173.236 35.3905 172.708 36.359 171.652 37.081C170.612 37.7854 169.097 38.1376 167.108 38.1376Z" fill="rgb(255,255,255)" fill-rule="nonzero" />
		<path id="Vector" d="M180.176 38.1378C178.434 38.1378 177.122 37.6535 176.242 36.6851C175.379 35.7165 174.947 34.4399 174.947 32.8551L174.947 25.0629L179.596 25.0629L179.596 32.3267C179.596 33.7883 180.256 34.5191 181.577 34.5191C182.176 34.5191 182.722 34.3782 183.215 34.0964C183.707 33.8146 184.112 33.4009 184.429 32.8551L184.429 25.0629L189.078 25.0629L189.078 37.7415L184.589 37.7415L184.589 36.3681C184.043 36.9491 183.382 37.3893 182.607 37.6887C181.833 37.9881 181.022 38.1378 180.176 38.1378Z" fill="rgb(255,255,255)" fill-rule="nonzero" />
		<path id="Vector" d="M191.458 25.0626L195.764 25.0626L195.764 26.4362C196.292 25.8728 196.9 25.4413 197.586 25.1419C198.273 24.8249 199.003 24.6665 199.779 24.6665C200.73 24.6665 201.487 24.8073 202.051 25.0891C202.632 25.3709 203.098 25.7935 203.45 26.357C203.978 25.8287 204.622 25.4148 205.379 25.1156C206.136 24.8162 206.903 24.6665 207.676 24.6665C209.349 24.6665 210.538 25.098 211.243 25.9608C211.947 26.806 212.299 28.0298 212.299 29.6322L212.299 37.7413L207.861 37.7413L207.861 30.2927C207.861 29.5883 207.729 29.0777 207.465 28.7607C207.201 28.4437 206.76 28.2853 206.145 28.2853C205.352 28.2853 204.709 28.5669 204.216 29.1305C204.234 29.4297 204.243 29.8877 204.243 30.5039L204.243 37.7413L199.805 37.7413L199.805 30.1078C199.805 29.4562 199.691 28.9895 199.462 28.7079C199.233 28.4261 198.827 28.2853 198.248 28.2853C197.348 28.2853 196.575 28.787 195.922 29.7908L195.922 37.7413L191.458 37.7413L191.458 25.0626Z" fill="rgb(255,255,255)" fill-rule="nonzero" />
	</g>
</svg>
