<svg viewBox="0 0 19.4004 16" xmlns="http://www.w3.org/2000/svg" xmlns:xlink="http://www.w3.org/1999/xlink" width="19.400391" height="16.000000" fill="none" customFrame="#000000">
	<path id="Vector" d="M16.267 1.78741C15.7635 1.20852 15.0944 0.798223 14.3502 0.612002C13.6059 0.425781 12.8224 0.472624 12.1057 0.746194C11.3889 1.01977 10.7735 1.50686 10.3426 2.14161C9.91169 2.77636 9.68613 3.52813 9.69641 4.29525L9.69641 5.1312C8.22735 5.1693 6.77166 4.84348 5.459 4.18277C4.14634 3.52207 3.01745 2.54698 2.17287 1.34435C2.17287 1.34435 -1.17092 8.86789 6.35262 12.2117C4.63101 13.3803 2.58011 13.9663 0.500977 13.8836C8.02452 18.0633 17.22 13.8836 17.22 4.27018C17.2192 4.03732 17.1968 3.80505 17.1531 3.57634C18.0063 2.73495 18.6083 1.67264 18.8919 0.508406C18.0913 1.07307 17.205 1.50495 16.267 1.78741Z" fill-rule="nonzero" stroke="rgb(255,255,255)" stroke-linecap="round" stroke-linejoin="round" stroke-width="1" />
</svg>
